<svg width="52" height="52" viewBox="0 0 52 52" fill="none" xmlns="http://www.w3.org/2000/svg">
<path d="M42.7566 4.55H9.24262C8.51804 4.54826 7.8222 4.83408 7.30799 5.34449C6.7938 5.8552 6.50303 6.54873 6.49954 7.27361V28.0736C6.50302 28.7982 6.79378 29.4917 7.30799 30.0025C7.82219 30.5129 8.51803 30.7987 9.24262 30.7969H23.5426V35.75H15.2293C14.8704 35.75 14.5793 36.0411 14.5793 36.4C14.5793 36.759 14.8704 37.05 15.2293 37.05H36.7707C37.1296 37.05 37.4207 36.759 37.4207 36.4C37.4207 36.0411 37.1296 35.75 36.7707 35.75H28.444V30.7645H42.744C43.4709 30.7697 44.1702 30.4856 44.687 29.9746C45.2041 29.4636 45.4966 28.768 45.5001 28.0412V7.27384C45.4966 6.54897 45.2058 5.85542 44.6916 5.34471C44.1774 4.83428 43.4816 4.54844 42.757 4.55022L42.7566 4.55ZM9.24262 5.85H42.7566C43.1365 5.84826 43.5015 5.99712 43.7719 6.26379C44.0424 6.53076 44.1962 6.89377 44.1997 7.27363V24.9796H7.79968V7.27363C7.80316 6.89379 7.95695 6.53078 8.2274 6.26379C8.49784 5.99712 8.86289 5.84825 9.24273 5.85H9.24262ZM27.1432 35.75H24.8555V30.7645H27.1435L27.1432 35.75ZM42.7432 29.4645H9.24262C8.86277 29.4662 8.49775 29.3174 8.22728 29.0507C7.95683 28.784 7.80304 28.421 7.79956 28.0411V26.2795H44.1996V28.0411C44.1961 28.421 44.0423 28.784 43.7718 29.0507C43.5014 29.3174 43.1363 29.4662 42.7565 29.4645H42.7432Z" fill="black"/>
<path d="M15.4566 17.4267L13.9811 18.8955L14.9042 19.8186L16.373 18.3431L16.3733 18.3434C17.0915 18.9017 17.947 19.2563 18.8497 19.3703V21.4503H20.1497V19.3703C21.0524 19.2563 21.9079 18.9017 22.6261 18.3434L24.0949 19.8189L25.018 18.8958L23.5425 17.427L23.5428 17.4267C24.1011 16.7085 24.4557 15.853 24.5697 14.9503H26.6497V13.6503H24.5697C24.4556 12.7476 24.101 11.8921 23.5428 11.1739L25.0183 9.70505L24.0952 8.78198L22.6264 10.2575L22.6261 10.2572C21.9079 9.69893 21.0524 9.34433 20.1497 9.2303V7.1503H18.8497V9.2303C17.947 9.34434 17.0915 9.69894 16.3733 10.2572L14.9045 8.78169L13.9814 9.70476L15.4569 11.1736L15.4566 11.1739C14.8983 11.8921 14.5437 12.7476 14.4297 13.6503H12.3497V14.9503H14.4297C14.5437 15.853 14.8983 16.7085 15.4566 17.4267ZM19.4997 10.4848C20.5141 10.483 21.4877 10.8846 22.2056 11.6011C22.9238 12.3175 23.3277 13.2902 23.3283 14.3047C23.3289 15.3191 22.9261 16.2921 22.2088 17.0094C21.4915 17.7267 20.5185 18.1295 19.5041 18.1289C18.4896 18.1283 17.5169 17.7244 16.8005 17.0062C16.084 16.2883 15.6824 15.3147 15.6842 14.3003C15.6859 13.289 16.0884 12.3195 16.8036 11.6042C17.5189 10.889 18.4884 10.4865 19.4997 10.4848Z" fill="black"/>
<path d="M28.6 21.1707L27.95 21.8207L28.8988 22.7501L29.5488 22.1001C29.859 22.3059 30.2052 22.4516 30.5694 22.529V23.4002H31.8694V22.5163C32.2257 22.4403 32.5652 22.2993 32.8705 22.1002L33.5205 22.7502L34.45 21.8014L33.8 21.1514C33.999 20.8461 34.1401 20.5066 34.2161 20.1502H35.0999V18.8502H34.2161C34.1424 18.4869 34.0014 18.141 33.8 17.8297L34.45 17.1797L33.5336 16.2633L32.8836 16.9133C32.5693 16.7058 32.2185 16.5604 31.85 16.4841V15.6003H30.55V16.4841C30.1858 16.5619 29.8396 16.7075 29.5294 16.9133L28.8794 16.2633L27.963 17.1797L28.613 17.8297C28.4073 18.1399 28.2616 18.4861 28.1839 18.8502H27.3V20.1502H28.1839C28.2576 20.5135 28.3986 20.8594 28.6 21.1707L28.6 21.1707ZM31.2 17.7126C31.6741 17.7126 32.1288 17.9009 32.464 18.2361C32.7992 18.5712 32.9875 19.026 32.9875 19.5001C32.9875 19.9743 32.7992 20.429 32.464 20.7642C32.1289 21.0994 31.6741 21.2877 31.2 21.2877C30.7258 21.2877 30.2711 21.0993 29.9359 20.7642C29.6007 20.429 29.4124 19.9743 29.4124 19.5001C29.4124 19.026 29.6008 18.5713 29.9359 18.2361C30.2711 17.9009 30.7258 17.7126 31.2 17.7126Z" fill="black"/>
<path d="M29.25 12.2334V13.0003H30.55V12.2334C31.1019 12.0366 31.5363 11.6022 31.7331 11.0503H32.5V9.7503H31.7331C31.5363 9.19838 31.1019 8.76401 30.55 8.56722V7.8003H29.25V8.56722C28.6981 8.76396 28.2637 9.19836 28.0669 9.7503H27.3V11.0503H28.0669C28.2637 11.6022 28.6981 12.0366 29.25 12.2334ZM29.9 9.7503C30.1629 9.7503 30.4 9.90873 30.5004 10.1516C30.6011 10.3945 30.5456 10.6739 30.3596 10.8599C30.1736 11.046 29.8942 11.1014 29.6513 11.0007C29.4084 10.9003 29.25 10.6632 29.25 10.4003C29.25 10.0413 29.5411 9.7503 29.9 9.7503Z" fill="black"/>
<path d="M19.5 16.9C20.1895 16.9 20.8508 16.6261 21.3386 16.1386C21.8261 15.6508 22.1 14.9895 22.1 14.3C22.1 13.6106 21.8261 12.9492 21.3386 12.4614C20.8508 11.9739 20.1894 11.7 19.5 11.7C18.8105 11.7 18.1492 11.9739 17.6614 12.4614C17.1739 12.9492 16.9 13.6106 16.9 14.3C16.9 14.9895 17.1739 15.6508 17.6614 16.1386C18.1492 16.6261 18.8105 16.9 19.5 16.9ZM19.5 13C19.8447 13 20.1755 13.137 20.4193 13.3807C20.663 13.6245 20.8 13.9553 20.8 14.3C20.8 14.6447 20.663 14.9755 20.4193 15.2193C20.1755 15.463 19.8447 15.6 19.5 15.6C19.1553 15.6 18.8245 15.463 18.5807 15.2193C18.337 14.9755 18.2 14.6447 18.2 14.3C18.2 13.9553 18.337 13.6245 18.5807 13.3807C18.8245 13.137 19.1553 13 19.5 13Z" fill="black"/>
</svg>
