<svg width="47" height="47" viewBox="0 0 47 47" fill="none" xmlns="http://www.w3.org/2000/svg">
<path d="M24.1107 3C24.4216 3.00001 24.7245 3.09871 24.9758 3.28189C25.2271 3.46507 25.4138 3.72327 25.5089 4.01931L27.1245 9.0395C27.8031 9.37144 28.4523 9.7445 29.0721 10.1646L34.2303 9.05419C34.5345 8.98925 34.8514 9.02253 35.1354 9.14923C35.4194 9.27592 35.6559 9.4895 35.8107 9.75919L39.8821 16.8062C40.0376 17.0758 40.1034 17.3877 40.0702 17.6971C40.0369 18.0065 39.9062 18.2973 39.697 18.5276L36.1573 22.4345C36.2089 23.1837 36.2089 23.9355 36.1573 24.6846L39.697 28.5974C39.9062 28.8277 40.0369 29.1185 40.0702 29.4279C40.1034 29.7373 40.0376 30.0492 39.8821 30.3188L35.8107 37.3687C35.6554 37.6379 35.4188 37.8509 35.1348 37.977C34.8508 38.1032 34.5342 38.136 34.2303 38.0708L29.0721 36.9604C28.4552 37.3776 27.8031 37.7536 27.1275 38.0855L25.5089 43.1057C25.4138 43.4017 25.2271 43.6599 24.9758 43.8431C24.7245 44.0263 24.4216 44.125 24.1107 44.125H15.9679C15.657 44.125 15.354 44.0263 15.1027 43.8431C14.8515 43.6599 14.6648 43.4017 14.5697 43.1057L12.957 38.0884C12.2802 37.7575 11.6275 37.3796 11.0035 36.9575L5.84822 38.0708C5.54409 38.1357 5.2272 38.1025 4.94319 37.9758C4.65918 37.8491 4.42271 37.6355 4.26785 37.3658L0.196477 30.3188C0.0410079 30.0492 -0.0248438 29.7373 0.00841665 29.4279C0.0416771 29.1185 0.172331 28.8277 0.381539 28.5974L3.92123 24.6846C3.86995 23.9374 3.86995 23.1876 3.92123 22.4404L0.381539 18.5276C0.172331 18.2973 0.0416771 18.0065 0.00841665 17.6971C-0.0248438 17.3877 0.0410079 17.0758 0.196477 16.8062L4.26785 9.75625C4.42314 9.4871 4.65979 9.27413 4.94376 9.14798C5.22774 9.02183 5.54441 8.98899 5.84822 9.05419L11.0035 10.1675C11.6263 9.74744 12.2784 9.3685 12.957 9.03656L14.5726 4.01931C14.6674 3.72422 14.8532 3.46671 15.1033 3.28362C15.3534 3.10053 15.655 3.00125 15.965 3H24.1077H24.1107ZM23.0355 5.9375H17.043L15.3745 11.1281L14.2495 11.6774C13.6964 11.948 13.1625 12.2562 12.6515 12.5998L11.6116 13.3047L6.2771 12.1533L3.28085 17.3467L6.93804 21.3946L6.84991 22.6401C6.8077 23.2543 6.8077 23.8707 6.84991 24.4849L6.93804 25.7304L3.27498 29.7782L6.27416 34.9718L11.6087 33.8232L12.6485 34.5253C13.1595 34.8688 13.6935 35.177 14.2465 35.4476L15.3716 35.9969L17.043 41.1875H23.0414L24.7158 35.994L25.8379 35.4476C26.3904 35.1776 26.9234 34.8694 27.433 34.5253L28.4699 33.8232L33.8073 34.9718L36.8036 29.7782L33.1435 25.7304L33.2316 24.4849C33.2739 23.8697 33.2739 23.2524 33.2316 22.6372L33.1435 21.3917L36.8065 17.3467L33.8073 12.1533L28.4699 13.2989L27.433 12.5998C26.9234 12.2555 26.3904 11.9473 25.8379 11.6774L24.7158 11.131L23.0385 5.9375H23.0355ZM20.0393 14.75C22.3765 14.75 24.618 15.6785 26.2707 17.3311C27.9233 18.9838 28.8518 21.2253 28.8518 23.5625C28.8518 25.8997 27.9233 28.1412 26.2707 29.7939C24.618 31.4465 22.3765 32.375 20.0393 32.375C17.7021 32.375 15.4606 31.4465 13.8079 29.7939C12.1552 28.1412 11.2268 25.8997 11.2268 23.5625C11.2268 21.2253 12.1552 18.9838 13.8079 17.3311C15.4606 15.6785 17.7021 14.75 20.0393 14.75ZM20.0393 17.6875C18.4811 17.6875 16.9868 18.3065 15.885 19.4082C14.7833 20.51 14.1643 22.0044 14.1643 23.5625C14.1643 25.1206 14.7833 26.615 15.885 27.7168C16.9868 28.8185 18.4811 29.4375 20.0393 29.4375C21.5974 29.4375 23.0918 28.8185 24.1935 27.7168C25.2953 26.615 25.9143 25.1206 25.9143 23.5625C25.9143 22.0044 25.2953 20.51 24.1935 19.4082C23.0918 18.3065 21.5974 17.6875 20.0393 17.6875Z" fill="black"/>
</svg>
