<svg width="45" height="45" viewBox="0 0 45 45" fill="none" xmlns="http://www.w3.org/2000/svg">
<path d="M22.7769 20.1709C22.744 20.1289 22.7019 20.0949 22.654 20.0715C22.606 20.0482 22.5534 20.036 22.5 20.036C22.4466 20.036 22.394 20.0482 22.346 20.0715C22.298 20.0949 22.256 20.1289 22.2231 20.1709L17.3013 26.398C17.2607 26.4498 17.2355 26.512 17.2286 26.5774C17.2217 26.6429 17.2334 26.7089 17.2623 26.7681C17.2911 26.8272 17.3361 26.877 17.3919 26.9118C17.4478 26.9466 17.5123 26.965 17.5781 26.9648H20.8257V37.6172C20.8257 37.8105 20.9839 37.9688 21.1772 37.9688H23.814C24.0073 37.9688 24.1655 37.8105 24.1655 37.6172V26.9692H27.4219C27.7163 26.9692 27.8789 26.6309 27.6987 26.4023L22.7769 20.1709Z" fill="black"/>
<path d="M35.6572 16.1147C33.6445 10.8062 28.5161 7.03125 22.5088 7.03125C16.5015 7.03125 11.373 10.8018 9.36035 16.1104C5.59424 17.0991 2.8125 20.5312 2.8125 24.6094C2.8125 29.4653 6.74561 33.3984 11.5972 33.3984H13.3594C13.5527 33.3984 13.7109 33.2402 13.7109 33.0469V30.4102C13.7109 30.2168 13.5527 30.0586 13.3594 30.0586H11.5972C10.1162 30.0586 8.72314 29.4697 7.68603 28.4019C6.65332 27.3384 6.104 25.9058 6.15234 24.4204C6.19189 23.2603 6.5874 22.1704 7.30371 21.252C8.0376 20.3159 9.06592 19.6348 10.2085 19.3315L11.874 18.8965L12.4849 17.2881C12.8628 16.2861 13.3901 15.3501 14.0537 14.502C14.7088 13.6613 15.4848 12.9223 16.3564 12.3091C18.1626 11.0391 20.2896 10.3667 22.5088 10.3667C24.728 10.3667 26.855 11.0391 28.6611 12.3091C29.5356 12.9243 30.3091 13.6626 30.9639 14.502C31.6274 15.3501 32.1548 16.2905 32.5327 17.2881L33.1392 18.8921L34.8003 19.3315C37.1821 19.9731 38.8477 22.1396 38.8477 24.6094C38.8477 26.064 38.2808 27.4351 37.2524 28.4634C36.7481 28.9706 36.1482 29.3728 35.4874 29.6466C34.8266 29.9204 34.1181 30.0605 33.4028 30.0586H31.6406C31.4473 30.0586 31.2891 30.2168 31.2891 30.4102V33.0469C31.2891 33.2402 31.4473 33.3984 31.6406 33.3984H33.4028C38.2544 33.3984 42.1875 29.4653 42.1875 24.6094C42.1875 20.5356 39.4146 17.1079 35.6572 16.1147Z" fill="black"/>
</svg>
